<?xml version="1.0" standalone="no"?>
<!DOCTYPE svg PUBLIC "-//W3C//DTD SVG 20010904//EN"
 "http://www.w3.org/TR/2001/REC-SVG-20010904/DTD/svg10.dtd">
<svg version="1.0" xmlns="http://www.w3.org/2000/svg"
 width="439.000000pt" height="439.000000pt" viewBox="0 0 439.000000 439.000000"
 preserveAspectRatio="xMidYMid meet">
<metadata>
Created by potrace 1.14, written by Peter Selinger 2001-2017
</metadata>
<g transform="translate(0.000000,439.000000) scale(0.100000,-0.100000)"
fill="#000000" stroke="none">
<path d="M9 3934 c-9 -11 -10 -20 -3 -32 6 -9 737 -312 1625 -673 1524 -621
1614 -659 1617 -683 l3 -26 -1141 0 c-768 0 -1148 -3 -1161 -10 -22 -12 -25
-43 -6 -57 6 -6 407 -171 890 -369 854 -349 878 -359 875 -384 l-3 -25 -664
-5 c-596 -4 -665 -7 -674 -21 -8 -13 67 -136 368 -603 208 -323 385 -590 393
-593 8 -4 22 -2 30 3 8 6 189 280 401 610 212 330 709 1102 1104 1717 515 801
718 1123 715 1139 l-3 23 -2176 3 c-1977 2 -2178 1 -2190 -14z"/>
</g>
</svg>
